<svg width="24" height="24" viewBox="0 0 24 24" fill="none" xmlns="http://www.w3.org/2000/svg">
<g id="Cross icon">
<rect width="24" height="24" rx="10" fill="#F2F4F7"/>
<path id="Vector" d="M15.6529 7.29339L15.6528 7.29344L11.9999 10.9464L8.34812 7.29346L8.34811 7.29344C8.20825 7.15358 8.01857 7.07501 7.82078 7.07501C7.62299 7.07501 7.4333 7.15358 7.29344 7.29344C7.15358 7.4333 7.07501 7.623 7.07501 7.82079C7.07501 8.01858 7.15358 8.20827 7.29344 8.34813L7.29345 8.34814L10.9463 12L7.29345 15.6519L7.29344 15.6519C7.22419 15.7211 7.16926 15.8034 7.13178 15.8938C7.0943 15.9843 7.07501 16.0813 7.07501 16.1792C7.07501 16.2772 7.0943 16.3741 7.13178 16.4646C7.16926 16.5551 7.22419 16.6373 7.29344 16.7066C7.4333 16.8464 7.62299 16.925 7.82078 16.925C7.91871 16.925 8.01569 16.9057 8.10617 16.8682C8.19665 16.8308 8.27886 16.7758 8.34811 16.7066L8.34812 16.7066L11.9999 13.0536L15.6528 16.7066L15.6529 16.7066C15.7928 16.8463 15.9824 16.9248 16.1801 16.9246C16.3778 16.9245 16.5673 16.8459 16.707 16.706C16.8467 16.5661 16.9251 16.3765 16.925 16.1788C16.9249 15.9811 16.8463 15.7916 16.7064 15.6519C16.7064 15.6519 16.7064 15.6519 16.7064 15.6518L13.0535 12L16.7064 8.34818C16.7064 8.34817 16.7064 8.34815 16.7064 8.34814C16.7757 8.27897 16.8306 8.19685 16.8681 8.10646C16.9056 8.01605 16.925 7.91913 16.925 7.82124C16.9251 7.72336 16.9059 7.62642 16.8684 7.53596C16.831 7.4455 16.7762 7.3633 16.707 7.29404C16.6378 7.22478 16.5557 7.16982 16.4653 7.13231C16.3749 7.09479 16.278 7.07545 16.1801 7.07539C16.0822 7.07533 15.9853 7.09455 15.8948 7.13196C15.8043 7.16936 15.7221 7.22422 15.6529 7.29339Z" fill="#667085" stroke="#667085" stroke-width="0.25"/>
</g>
</svg>
