<svg width="32" height="32" viewBox="0 0 32 32" fill="none" xmlns="http://www.w3.org/2000/svg">
<g id="Pern Logo">
<path id="Vector" d="M21.3662 18.4615C21.4646 17.6492 21.5385 16.8369 21.5385 16C21.5385 15.163 21.4646 14.3507 21.3662 13.5384H25.5262C25.7231 14.3261 25.8462 15.1507 25.8462 16C25.8462 16.8492 25.7231 17.6738 25.5262 18.4615M19.1877 25.3046C19.9262 23.9384 20.4923 22.4615 20.8862 20.923H24.5169C23.3245 22.9763 21.4328 24.5316 19.1877 25.3046ZM18.88 18.4615H13.12C12.9969 17.6492 12.9231 16.8369 12.9231 16C12.9231 15.163 12.9969 14.3384 13.12 13.5384H18.88C18.9908 14.3384 19.0769 15.163 19.0769 16C19.0769 16.8369 18.9908 17.6492 18.88 18.4615ZM16 25.7969C14.9785 24.32 14.1539 22.683 13.6492 20.923H18.3508C17.8462 22.683 17.0216 24.32 16 25.7969ZM11.0769 11.0769H7.48309C8.66322 9.01806 10.5536 7.46024 12.8 6.69534C12.0616 8.06149 11.5077 9.53841 11.0769 11.0769ZM7.48309 20.923H11.0769C11.5077 22.4615 12.0616 23.9384 12.8 25.3046C10.5583 24.5312 8.67059 22.9756 7.48309 20.923ZM6.47386 18.4615C6.27694 17.6738 6.15386 16.8492 6.15386 16C6.15386 15.1507 6.27694 14.3261 6.47386 13.5384H10.6339C10.5354 14.3507 10.4616 15.163 10.4616 16C10.4616 16.8369 10.5354 17.6492 10.6339 18.4615M16 6.19072C17.0216 7.66765 17.8462 9.31688 18.3508 11.0769H13.6492C14.1539 9.31688 14.9785 7.66765 16 6.19072ZM24.5169 11.0769H20.8862C20.501 9.55252 19.9306 8.08106 19.1877 6.69534C21.4523 7.47072 23.3354 9.0338 24.5169 11.0769ZM16 3.69226C9.19386 3.69226 3.69232 9.23072 3.69232 16C3.69232 19.2642 4.98902 22.3947 7.29716 24.7028C8.44004 25.8457 9.79683 26.7523 11.2901 27.3708C12.7833 27.9893 14.3837 28.3076 16 28.3076C19.2642 28.3076 22.3947 27.0109 24.7029 24.7028C27.011 22.3947 28.3077 19.2642 28.3077 16C28.3077 14.3837 27.9894 12.7832 27.3708 11.29C26.7523 9.79676 25.8457 8.43997 24.7029 7.2971C23.56 6.15423 22.2032 5.24765 20.71 4.62913C19.2167 4.01061 17.6163 3.69226 16 3.69226Z" fill="#444CE7"/>
</g>
</svg>
